solid OpenSCAD_Model
  facet normal -1 0 0
    outer loop
      vertex -50 -25 0
      vertex -50 -24.7826 0.637606
      vertex -50 25 0
    endloop
  endfacet
  facet normal -1 0 0
    outer loop
      vertex -50 -25 0
      vertex -50 -25 1
      vertex -50 -24.7826 0.637606
    endloop
  endfacet
  facet normal -1 0 0
    outer loop
      vertex -50 25 0
      vertex -50 24.1548 30
      vertex -50 25 30
    endloop
  endfacet
  facet normal -1 0 0
    outer loop
      vertex -50 24.1548 30
      vertex -50 25 0
      vertex -50 -24.7826 0.637606
    endloop
  endfacet
  facet normal 0 -1 0
    outer loop
      vertex -50 -25 1
      vertex -50 -25 0
      vertex 50 -25 0
    endloop
  endfacet
  facet normal 0 -1 0
    outer loop
      vertex 50 -25 1
      vertex -50 -25 1
      vertex 50 -25 0
    endloop
  endfacet
  facet normal 0 0 -1
    outer loop
      vertex 45 21.625 0
      vertex -50 25 0
      vertex 50 25 0
    endloop
  endfacet
  facet normal 0 0 -1
    outer loop
      vertex -50 -25 0
      vertex -50 25 0
      vertex -46.625 -20 0
    endloop
  endfacet
  facet normal 0 0 -1
    outer loop
      vertex -50 -25 0
      vertex -46.625 -20 0
      vertex -46.4073 -20.8125 0
    endloop
  endfacet
  facet normal 0 0 -1
    outer loop
      vertex -50 -25 0
      vertex -46.4073 -20.8125 0
      vertex -45.8125 -21.4073 0
    endloop
  endfacet
  facet normal 0 0 -1
    outer loop
      vertex -50 -25 0
      vertex -45.8125 -21.4073 0
      vertex -45 -21.625 0
    endloop
  endfacet
  facet normal 0 0 -1
    outer loop
      vertex -50 -25 0
      vertex -45 -21.625 0
      vertex 50 -25 0
    endloop
  endfacet
  facet normal 0 0 -1
    outer loop
      vertex -43.5927 -20.8125 0
      vertex 50 -25 0
      vertex -44.1875 -21.4073 0
    endloop
  endfacet
  facet normal 0 0 -1
    outer loop
      vertex -43.375 -20 0
      vertex 50 -25 0
      vertex -43.5927 -20.8125 0
    endloop
  endfacet
  facet normal 0 0 -1
    outer loop
      vertex -43.5927 -19.1875 0
      vertex -50 25 0
      vertex -43.375 -20 0
    endloop
  endfacet
  facet normal 0 0 -1
    outer loop
      vertex 35.5 -12 0
      vertex 43.5927 -20.8125 0
      vertex -35.5 -12 0
    endloop
  endfacet
  facet normal 0 0 -1
    outer loop
      vertex -44.1875 -18.5927 0
      vertex -50 25 0
      vertex -43.5927 -19.1875 0
    endloop
  endfacet
  facet normal 0 0 -1
    outer loop
      vertex -45 -18.375 0
      vertex -50 25 0
      vertex -44.1875 -18.5927 0
    endloop
  endfacet
  facet normal 0 0 -1
    outer loop
      vertex -45.8125 -18.5927 0
      vertex -50 25 0
      vertex -45 -18.375 0
    endloop
  endfacet
  facet normal 0 0 -1
    outer loop
      vertex -46.4073 -19.1875 0
      vertex -50 25 0
      vertex -45.8125 -18.5927 0
    endloop
  endfacet
  facet normal 0 0 -1
    outer loop
      vertex -46.625 -20 0
      vertex -50 25 0
      vertex -46.4073 -19.1875 0
    endloop
  endfacet
  facet normal 0 0 -1
    outer loop
      vertex -43.375 -20 0
      vertex -50 25 0
      vertex -46.625 20 0
    endloop
  endfacet
  facet normal 0 0 -1
    outer loop
      vertex -43.375 -20 0
      vertex -46.625 20 0
      vertex -46.4073 19.1875 0
    endloop
  endfacet
  facet normal 0 0 -1
    outer loop
      vertex -43.375 -20 0
      vertex -46.4073 19.1875 0
      vertex -45.8125 18.5927 0
    endloop
  endfacet
  facet normal 0 0 -1
    outer loop
      vertex 44.1875 -21.4073 0
      vertex 50 -25 0
      vertex -35.5 -12 0
    endloop
  endfacet
  facet normal 0 0 -1
    outer loop
      vertex 43.5927 -20.8125 0
      vertex 44.1875 -21.4073 0
      vertex -35.5 -12 0
    endloop
  endfacet
  facet normal 0 0 -1
    outer loop
      vertex -35.5 12 0
      vertex -45.8125 18.5927 0
      vertex -45 18.375 0
    endloop
  endfacet
  facet normal 0 0 -1
    outer loop
      vertex -45 21.625 0
      vertex -50 25 0
      vertex -44.1875 21.4073 0
    endloop
  endfacet
  facet normal 0 0 -1
    outer loop
      vertex -46.4073 20.8125 0
      vertex -50 25 0
      vertex -45.8125 21.4073 0
    endloop
  endfacet
  facet normal 0 0 -1
    outer loop
      vertex -45.8125 21.4073 0
      vertex -50 25 0
      vertex -45 21.625 0
    endloop
  endfacet
  facet normal 0 0 -1
    outer loop
      vertex -35.5 12 0
      vertex -45 18.375 0
      vertex -44.1875 18.5927 0
    endloop
  endfacet
  facet normal 0 0 -1
    outer loop
      vertex -46.625 20 0
      vertex -50 25 0
      vertex -46.4073 20.8125 0
    endloop
  endfacet
  facet normal 0 0 -1
    outer loop
      vertex -43.375 -20 0
      vertex -45.8125 18.5927 0
      vertex -35.5 12 0
    endloop
  endfacet
  facet normal 0 0 -1
    outer loop
      vertex -43.375 -20 0
      vertex -35.5 12 0
      vertex -35.5 -12 0
    endloop
  endfacet
  facet normal 0 0 -1
    outer loop
      vertex -43.375 -20 0
      vertex -35.5 -12 0
      vertex 50 -25 0
    endloop
  endfacet
  facet normal 0 0 -1
    outer loop
      vertex 45.8125 -18.5927 0
      vertex 35.5 -12 0
      vertex 50 25 0
    endloop
  endfacet
  facet normal 0 0 -1
    outer loop
      vertex 46.625 20 0
      vertex 50 25 0
      vertex 46.4073 19.1875 0
    endloop
  endfacet
  facet normal 0 0 -1
    outer loop
      vertex 45 -21.625 0
      vertex 50 -25 0
      vertex 44.1875 -21.4073 0
    endloop
  endfacet
  facet normal 0 0 -1
    outer loop
      vertex 45.8125 -21.4073 0
      vertex 50 -25 0
      vertex 45 -21.625 0
    endloop
  endfacet
  facet normal 0 0 -1
    outer loop
      vertex 46.4073 -20.8125 0
      vertex 50 -25 0
      vertex 45.8125 -21.4073 0
    endloop
  endfacet
  facet normal 0 0 -1
    outer loop
      vertex 43.5927 19.1875 0
      vertex 35.5 12 0
      vertex 43.375 20 0
    endloop
  endfacet
  facet normal 0 0 -1
    outer loop
      vertex 50 -25 0
      vertex 46.4073 -20.8125 0
      vertex 46.625 -20 0
    endloop
  endfacet
  facet normal 0 0 -1
    outer loop
      vertex 50 -25 0
      vertex 46.625 -20 0
      vertex 50 25 0
    endloop
  endfacet
  facet normal 0 0 -1
    outer loop
      vertex 43.5927 -19.1875 0
      vertex 35.5 -12 0
      vertex 44.1875 -18.5927 0
    endloop
  endfacet
  facet normal 0 0 -1
    outer loop
      vertex 45 -18.375 0
      vertex 35.5 -12 0
      vertex 45.8125 -18.5927 0
    endloop
  endfacet
  facet normal 0 0 -1
    outer loop
      vertex 46.4073 -19.1875 0
      vertex 45.8125 -18.5927 0
      vertex 50 25 0
    endloop
  endfacet
  facet normal 0 0 -1
    outer loop
      vertex 44.1875 -18.5927 0
      vertex 35.5 -12 0
      vertex 45 -18.375 0
    endloop
  endfacet
  facet normal 0 0 -1
    outer loop
      vertex 45 21.625 0
      vertex 50 25 0
      vertex 45.8125 21.4073 0
    endloop
  endfacet
  facet normal 0 0 -1
    outer loop
      vertex 46.4073 -19.1875 0
      vertex 50 25 0
      vertex 46.625 -20 0
    endloop
  endfacet
  facet normal 0 0 -1
    outer loop
      vertex 35.5 12 0
      vertex -50 25 0
      vertex 43.375 20 0
    endloop
  endfacet
  facet normal 0 0 -1
    outer loop
      vertex 35.5 -12 0
      vertex 35.5 12 0
      vertex 43.5927 19.1875 0
    endloop
  endfacet
  facet normal 0 0 -1
    outer loop
      vertex 35.5 -12 0
      vertex 43.5927 19.1875 0
      vertex 44.1875 18.5927 0
    endloop
  endfacet
  facet normal 0 0 -1
    outer loop
      vertex 35.5 -12 0
      vertex 44.1875 18.5927 0
      vertex 45 18.375 0
    endloop
  endfacet
  facet normal 0 0 -1
    outer loop
      vertex 35.5 -12 0
      vertex 45 18.375 0
      vertex 45.8125 18.5927 0
    endloop
  endfacet
  facet normal 0 0 -1
    outer loop
      vertex 35.5 -12 0
      vertex 45.8125 18.5927 0
      vertex 46.4073 19.1875 0
    endloop
  endfacet
  facet normal 0 0 -1
    outer loop
      vertex 35.5 -12 0
      vertex 46.4073 19.1875 0
      vertex 50 25 0
    endloop
  endfacet
  facet normal 0 0 -1
    outer loop
      vertex 46.4073 20.8125 0
      vertex 50 25 0
      vertex 46.625 20 0
    endloop
  endfacet
  facet normal 0 0 -1
    outer loop
      vertex 45.8125 21.4073 0
      vertex 50 25 0
      vertex 46.4073 20.8125 0
    endloop
  endfacet
  facet normal 0 0 -1
    outer loop
      vertex 44.1875 21.4073 0
      vertex -50 25 0
      vertex 45 21.625 0
    endloop
  endfacet
  facet normal 0 0 -1
    outer loop
      vertex 43.5927 20.8125 0
      vertex -50 25 0
      vertex 44.1875 21.4073 0
    endloop
  endfacet
  facet normal 0 0 -1
    outer loop
      vertex 43.375 20 0
      vertex -50 25 0
      vertex 43.5927 20.8125 0
    endloop
  endfacet
  facet normal 0 0 -1
    outer loop
      vertex -44.1875 -21.4073 0
      vertex 50 -25 0
      vertex -45 -21.625 0
    endloop
  endfacet
  facet normal 0 0 -1
    outer loop
      vertex -35.5 12 0
      vertex -44.1875 18.5927 0
      vertex -43.5927 19.1875 0
    endloop
  endfacet
  facet normal 0 0 -1
    outer loop
      vertex -35.5 12 0
      vertex -43.5927 19.1875 0
      vertex -43.375 20 0
    endloop
  endfacet
  facet normal 0 0 -1
    outer loop
      vertex -35.5 12 0
      vertex -43.375 20 0
      vertex -43.5927 20.8125 0
    endloop
  endfacet
  facet normal 0 0 -1
    outer loop
      vertex -44.1875 21.4073 0
      vertex -50 25 0
      vertex 35.5 12 0
    endloop
  endfacet
  facet normal 0 0 -1
    outer loop
      vertex -43.5927 20.8125 0
      vertex -44.1875 21.4073 0
      vertex 35.5 12 0
    endloop
  endfacet
  facet normal 0 0 -1
    outer loop
      vertex -35.5 12 0
      vertex -43.5927 20.8125 0
      vertex 35.5 12 0
    endloop
  endfacet
  facet normal 0 0 -1
    outer loop
      vertex 35.5 -12 0
      vertex 43.375 -20 0
      vertex 43.5927 -20.8125 0
    endloop
  endfacet
  facet normal 0 0 -1
    outer loop
      vertex 43.375 -20 0
      vertex 35.5 -12 0
      vertex 43.5927 -19.1875 0
    endloop
  endfacet
  facet normal 0 1 0
    outer loop
      vertex -50 25 0
      vertex -50 25 30
      vertex 50 25 0
    endloop
  endfacet
  facet normal 0 1 0
    outer loop
      vertex 50 25 0
      vertex -50 25 30
      vertex 50 25 30
    endloop
  endfacet
  facet normal 0 0 1
    outer loop
      vertex -50 25 30
      vertex -50 24.1548 30
      vertex 50 24.1548 30
    endloop
  endfacet
  facet normal 0 0 1
    outer loop
      vertex 50 25 30
      vertex -50 25 30
      vertex 50 24.1548 30
    endloop
  endfacet
  facet normal 0 -0.514496 0.857493
    outer loop
      vertex -49 24 29.9071
      vertex 50 24.1548 30
      vertex -50 24.1548 30
    endloop
  endfacet
  facet normal 0 -0.514496 0.857493
    outer loop
      vertex 49 -23.3452 1.5
      vertex -49 -23.3452 1.5
      vertex 50 -24.7826 0.637606
    endloop
  endfacet
  facet normal 0 -0.514496 0.857493
    outer loop
      vertex 49 24 29.9071
      vertex 50 24.1548 30
      vertex -49 24 29.9071
    endloop
  endfacet
  facet normal 0 -0.514496 0.857493
    outer loop
      vertex 50 -24.7826 0.637606
      vertex 50 24.1548 30
      vertex 49 24 29.9071
    endloop
  endfacet
  facet normal 0 -0.514496 0.857493
    outer loop
      vertex 50 -24.7826 0.637606
      vertex 49 24 29.9071
      vertex 49 -23.3452 1.5
    endloop
  endfacet
  facet normal 0 -0.514496 0.857493
    outer loop
      vertex -50 -24.7826 0.637606
      vertex -49 -23.3452 1.5
      vertex -50 24.1548 30
    endloop
  endfacet
  facet normal 0 -0.514496 0.857493
    outer loop
      vertex -50 -24.7826 0.637606
      vertex 50 -24.7826 0.637606
      vertex -49 -23.3452 1.5
    endloop
  endfacet
  facet normal 0 -0.514496 0.857493
    outer loop
      vertex -49 -23.3452 1.5
      vertex -49 24 29.9071
      vertex -50 24.1548 30
    endloop
  endfacet
  facet normal 0 0.857493 0.514496
    outer loop
      vertex 50 -24.7826 0.637606
      vertex -50 -24.7826 0.637606
      vertex 50 -25 1
    endloop
  endfacet
  facet normal 0 0.857493 0.514496
    outer loop
      vertex 50 -25 1
      vertex -50 -24.7826 0.637606
      vertex -50 -25 1
    endloop
  endfacet
  facet normal 1 0 0
    outer loop
      vertex 50 -24.7826 0.637606
      vertex 50 -25 0
      vertex 50 25 0
    endloop
  endfacet
  facet normal 1 0 0
    outer loop
      vertex 50 -25 1
      vertex 50 -25 0
      vertex 50 -24.7826 0.637606
    endloop
  endfacet
  facet normal 1 0 0
    outer loop
      vertex 50 24.1548 30
      vertex 50 25 0
      vertex 50 25 30
    endloop
  endfacet
  facet normal 1 0 0
    outer loop
      vertex 50 24.1548 30
      vertex 50 -24.7826 0.637606
      vertex 50 25 0
    endloop
  endfacet
  facet normal 0.965926 -0.258819 0
    outer loop
      vertex -46.4073 -19.1875 0
      vertex -46.4073 -19.1875 1.5
      vertex -46.625 -20 1.5
    endloop
  endfacet
  facet normal 0.965926 -0.258819 0
    outer loop
      vertex -46.625 -20 0
      vertex -46.4073 -19.1875 0
      vertex -46.625 -20 1.5
    endloop
  endfacet
  facet normal 0.965926 0.258819 0
    outer loop
      vertex -46.625 -20 1.5
      vertex -46.4073 -20.8125 1.5
      vertex -46.4073 -20.8125 0
    endloop
  endfacet
  facet normal 0.965926 0.258819 0
    outer loop
      vertex -46.625 -20 0
      vertex -46.625 -20 1.5
      vertex -46.4073 -20.8125 0
    endloop
  endfacet
  facet normal 0.707107 -0.707107 0
    outer loop
      vertex -45.8125 -18.5927 0
      vertex -45.8125 -18.5927 1.5
      vertex -46.4073 -19.1875 1.5
    endloop
  endfacet
  facet normal 0.707107 -0.707107 0
    outer loop
      vertex -46.4073 -19.1875 0
      vertex -45.8125 -18.5927 0
      vertex -46.4073 -19.1875 1.5
    endloop
  endfacet
  facet normal 0.258819 -0.965926 0
    outer loop
      vertex -45 -18.375 0
      vertex -45 -18.375 1.5
      vertex -45.8125 -18.5927 1.5
    endloop
  endfacet
  facet normal 0.258819 -0.965926 0
    outer loop
      vertex -45.8125 -18.5927 0
      vertex -45 -18.375 0
      vertex -45.8125 -18.5927 1.5
    endloop
  endfacet
  facet normal -0.258819 -0.965926 0
    outer loop
      vertex -44.1875 -18.5927 0
      vertex -44.1875 -18.5927 1.5
      vertex -45 -18.375 1.5
    endloop
  endfacet
  facet normal -0.258819 -0.965926 0
    outer loop
      vertex -45 -18.375 0
      vertex -44.1875 -18.5927 0
      vertex -45 -18.375 1.5
    endloop
  endfacet
  facet normal -0.707107 -0.707107 0
    outer loop
      vertex -43.5927 -19.1875 0
      vertex -43.5927 -19.1875 1.5
      vertex -44.1875 -18.5927 1.5
    endloop
  endfacet
  facet normal -0.707107 -0.707107 0
    outer loop
      vertex -44.1875 -18.5927 0
      vertex -43.5927 -19.1875 0
      vertex -44.1875 -18.5927 1.5
    endloop
  endfacet
  facet normal -0.965926 -0.258819 0
    outer loop
      vertex -43.375 -20 1.5
      vertex -43.5927 -19.1875 1.5
      vertex -43.375 -20 0
    endloop
  endfacet
  facet normal -0.965926 -0.258819 0
    outer loop
      vertex -43.375 -20 0
      vertex -43.5927 -19.1875 1.5
      vertex -43.5927 -19.1875 0
    endloop
  endfacet
  facet normal -0.965926 0.258819 0
    outer loop
      vertex -43.375 -20 1.5
      vertex -43.375 -20 0
      vertex -43.5927 -20.8125 1.5
    endloop
  endfacet
  facet normal -0.965926 0.258819 0
    outer loop
      vertex -43.5927 -20.8125 1.5
      vertex -43.375 -20 0
      vertex -43.5927 -20.8125 0
    endloop
  endfacet
  facet normal -0.707107 0.707107 0
    outer loop
      vertex -43.5927 -20.8125 1.5
      vertex -43.5927 -20.8125 0
      vertex -44.1875 -21.4073 1.5
    endloop
  endfacet
  facet normal -0.707107 0.707107 0
    outer loop
      vertex -44.1875 -21.4073 1.5
      vertex -43.5927 -20.8125 0
      vertex -44.1875 -21.4073 0
    endloop
  endfacet
  facet normal -0.258819 0.965926 0
    outer loop
      vertex -44.1875 -21.4073 1.5
      vertex -44.1875 -21.4073 0
      vertex -45 -21.625 1.5
    endloop
  endfacet
  facet normal -0.258819 0.965926 0
    outer loop
      vertex -45 -21.625 1.5
      vertex -44.1875 -21.4073 0
      vertex -45 -21.625 0
    endloop
  endfacet
  facet normal 0.258819 0.965926 0
    outer loop
      vertex -45 -21.625 1.5
      vertex -45 -21.625 0
      vertex -45.8125 -21.4073 1.5
    endloop
  endfacet
  facet normal 0.258819 0.965926 0
    outer loop
      vertex -45.8125 -21.4073 1.5
      vertex -45 -21.625 0
      vertex -45.8125 -21.4073 0
    endloop
  endfacet
  facet normal 0.707107 0.707107 0
    outer loop
      vertex -45.8125 -21.4073 1.5
      vertex -45.8125 -21.4073 0
      vertex -46.4073 -20.8125 1.5
    endloop
  endfacet
  facet normal 0.707107 0.707107 0
    outer loop
      vertex -46.4073 -20.8125 1.5
      vertex -45.8125 -21.4073 0
      vertex -46.4073 -20.8125 0
    endloop
  endfacet
  facet normal 0.965926 -0.258819 0
    outer loop
      vertex -46.4073 20.8125 0
      vertex -46.4073 20.8125 1.5
      vertex -46.625 20 1.5
    endloop
  endfacet
  facet normal 0.965926 -0.258819 0
    outer loop
      vertex -46.625 20 0
      vertex -46.4073 20.8125 0
      vertex -46.625 20 1.5
    endloop
  endfacet
  facet normal 0.965926 0.258819 0
    outer loop
      vertex -46.625 20 1.5
      vertex -46.4073 19.1875 1.5
      vertex -46.4073 19.1875 0
    endloop
  endfacet
  facet normal 0.965926 0.258819 0
    outer loop
      vertex -46.625 20 0
      vertex -46.625 20 1.5
      vertex -46.4073 19.1875 0
    endloop
  endfacet
  facet normal 0.707107 -0.707107 0
    outer loop
      vertex -45.8125 21.4073 0
      vertex -45.8125 21.4073 1.5
      vertex -46.4073 20.8125 1.5
    endloop
  endfacet
  facet normal 0.707107 -0.707107 0
    outer loop
      vertex -46.4073 20.8125 0
      vertex -45.8125 21.4073 0
      vertex -46.4073 20.8125 1.5
    endloop
  endfacet
  facet normal 0.258819 -0.965926 0
    outer loop
      vertex -45 21.625 0
      vertex -45 21.625 1.5
      vertex -45.8125 21.4073 1.5
    endloop
  endfacet
  facet normal 0.258819 -0.965926 0
    outer loop
      vertex -45.8125 21.4073 0
      vertex -45 21.625 0
      vertex -45.8125 21.4073 1.5
    endloop
  endfacet
  facet normal -0.258819 -0.965926 0
    outer loop
      vertex -44.1875 21.4073 0
      vertex -44.1875 21.4073 1.5
      vertex -45 21.625 1.5
    endloop
  endfacet
  facet normal -0.258819 -0.965926 0
    outer loop
      vertex -45 21.625 0
      vertex -44.1875 21.4073 0
      vertex -45 21.625 1.5
    endloop
  endfacet
  facet normal -0.707107 -0.707107 0
    outer loop
      vertex -43.5927 20.8125 0
      vertex -43.5927 20.8125 1.5
      vertex -44.1875 21.4073 1.5
    endloop
  endfacet
  facet normal -0.707107 -0.707107 0
    outer loop
      vertex -44.1875 21.4073 0
      vertex -43.5927 20.8125 0
      vertex -44.1875 21.4073 1.5
    endloop
  endfacet
  facet normal -0.965926 -0.258819 0
    outer loop
      vertex -43.375 20 1.5
      vertex -43.5927 20.8125 1.5
      vertex -43.375 20 0
    endloop
  endfacet
  facet normal -0.965926 -0.258819 0
    outer loop
      vertex -43.375 20 0
      vertex -43.5927 20.8125 1.5
      vertex -43.5927 20.8125 0
    endloop
  endfacet
  facet normal -0.965926 0.258819 0
    outer loop
      vertex -43.375 20 1.5
      vertex -43.375 20 0
      vertex -43.5927 19.1875 1.5
    endloop
  endfacet
  facet normal -0.965926 0.258819 0
    outer loop
      vertex -43.5927 19.1875 1.5
      vertex -43.375 20 0
      vertex -43.5927 19.1875 0
    endloop
  endfacet
  facet normal -0.707107 0.707107 0
    outer loop
      vertex -43.5927 19.1875 1.5
      vertex -43.5927 19.1875 0
      vertex -44.1875 18.5927 1.5
    endloop
  endfacet
  facet normal -0.707107 0.707107 0
    outer loop
      vertex -44.1875 18.5927 1.5
      vertex -43.5927 19.1875 0
      vertex -44.1875 18.5927 0
    endloop
  endfacet
  facet normal -0.258819 0.965926 0
    outer loop
      vertex -44.1875 18.5927 1.5
      vertex -44.1875 18.5927 0
      vertex -45 18.375 1.5
    endloop
  endfacet
  facet normal -0.258819 0.965926 0
    outer loop
      vertex -45 18.375 1.5
      vertex -44.1875 18.5927 0
      vertex -45 18.375 0
    endloop
  endfacet
  facet normal 0.258819 0.965926 0
    outer loop
      vertex -45 18.375 1.5
      vertex -45 18.375 0
      vertex -45.8125 18.5927 1.5
    endloop
  endfacet
  facet normal 0.258819 0.965926 0
    outer loop
      vertex -45.8125 18.5927 1.5
      vertex -45 18.375 0
      vertex -45.8125 18.5927 0
    endloop
  endfacet
  facet normal 0.707107 0.707107 0
    outer loop
      vertex -45.8125 18.5927 1.5
      vertex -45.8125 18.5927 0
      vertex -46.4073 19.1875 1.5
    endloop
  endfacet
  facet normal 0.707107 0.707107 0
    outer loop
      vertex -46.4073 19.1875 1.5
      vertex -45.8125 18.5927 0
      vertex -46.4073 19.1875 0
    endloop
  endfacet
  facet normal 1 0 0
    outer loop
      vertex -35.5 12 0
      vertex -35.5 12 1.5
      vertex -35.5 -12 1.5
    endloop
  endfacet
  facet normal 1 0 0
    outer loop
      vertex -35.5 -12 0
      vertex -35.5 12 0
      vertex -35.5 -12 1.5
    endloop
  endfacet
  facet normal 0 -1 0
    outer loop
      vertex 35.5 12 0
      vertex 35.5 12 1.5
      vertex -35.5 12 1.5
    endloop
  endfacet
  facet normal 0 -1 0
    outer loop
      vertex -35.5 12 0
      vertex 35.5 12 0
      vertex -35.5 12 1.5
    endloop
  endfacet
  facet normal -1 0 0
    outer loop
      vertex 35.5 12 1.5
      vertex 35.5 12 0
      vertex 35.5 -12 1.5
    endloop
  endfacet
  facet normal -1 0 0
    outer loop
      vertex 35.5 -12 1.5
      vertex 35.5 12 0
      vertex 35.5 -12 0
    endloop
  endfacet
  facet normal 0 1 0
    outer loop
      vertex 35.5 -12 1.5
      vertex 35.5 -12 0
      vertex -35.5 -12 1.5
    endloop
  endfacet
  facet normal 0 1 0
    outer loop
      vertex -35.5 -12 1.5
      vertex 35.5 -12 0
      vertex -35.5 -12 0
    endloop
  endfacet
  facet normal 0.965926 -0.258819 0
    outer loop
      vertex 43.5927 -19.1875 0
      vertex 43.5927 -19.1875 1.5
      vertex 43.375 -20 1.5
    endloop
  endfacet
  facet normal 0.965926 -0.258819 0
    outer loop
      vertex 43.375 -20 0
      vertex 43.5927 -19.1875 0
      vertex 43.375 -20 1.5
    endloop
  endfacet
  facet normal 0.965926 0.258819 0
    outer loop
      vertex 43.375 -20 1.5
      vertex 43.5927 -20.8125 1.5
      vertex 43.5927 -20.8125 0
    endloop
  endfacet
  facet normal 0.965926 0.258819 0
    outer loop
      vertex 43.375 -20 0
      vertex 43.375 -20 1.5
      vertex 43.5927 -20.8125 0
    endloop
  endfacet
  facet normal 0.707107 -0.707107 0
    outer loop
      vertex 44.1875 -18.5927 0
      vertex 44.1875 -18.5927 1.5
      vertex 43.5927 -19.1875 1.5
    endloop
  endfacet
  facet normal 0.707107 -0.707107 0
    outer loop
      vertex 43.5927 -19.1875 0
      vertex 44.1875 -18.5927 0
      vertex 43.5927 -19.1875 1.5
    endloop
  endfacet
  facet normal 0.258819 -0.965926 0
    outer loop
      vertex 45 -18.375 0
      vertex 45 -18.375 1.5
      vertex 44.1875 -18.5927 1.5
    endloop
  endfacet
  facet normal 0.258819 -0.965926 0
    outer loop
      vertex 44.1875 -18.5927 0
      vertex 45 -18.375 0
      vertex 44.1875 -18.5927 1.5
    endloop
  endfacet
  facet normal -0.258819 -0.965926 0
    outer loop
      vertex 45.8125 -18.5927 0
      vertex 45.8125 -18.5927 1.5
      vertex 45 -18.375 1.5
    endloop
  endfacet
  facet normal -0.258819 -0.965926 0
    outer loop
      vertex 45 -18.375 0
      vertex 45.8125 -18.5927 0
      vertex 45 -18.375 1.5
    endloop
  endfacet
  facet normal -0.707107 -0.707107 0
    outer loop
      vertex 46.4073 -19.1875 0
      vertex 46.4073 -19.1875 1.5
      vertex 45.8125 -18.5927 1.5
    endloop
  endfacet
  facet normal -0.707107 -0.707107 0
    outer loop
      vertex 45.8125 -18.5927 0
      vertex 46.4073 -19.1875 0
      vertex 45.8125 -18.5927 1.5
    endloop
  endfacet
  facet normal -0.965926 -0.258819 0
    outer loop
      vertex 46.625 -20 1.5
      vertex 46.4073 -19.1875 1.5
      vertex 46.625 -20 0
    endloop
  endfacet
  facet normal -0.965926 -0.258819 0
    outer loop
      vertex 46.625 -20 0
      vertex 46.4073 -19.1875 1.5
      vertex 46.4073 -19.1875 0
    endloop
  endfacet
  facet normal -0.965926 0.258819 0
    outer loop
      vertex 46.625 -20 1.5
      vertex 46.625 -20 0
      vertex 46.4073 -20.8125 1.5
    endloop
  endfacet
  facet normal -0.965926 0.258819 0
    outer loop
      vertex 46.4073 -20.8125 1.5
      vertex 46.625 -20 0
      vertex 46.4073 -20.8125 0
    endloop
  endfacet
  facet normal -0.707107 0.707107 0
    outer loop
      vertex 46.4073 -20.8125 1.5
      vertex 46.4073 -20.8125 0
      vertex 45.8125 -21.4073 1.5
    endloop
  endfacet
  facet normal -0.707107 0.707107 0
    outer loop
      vertex 45.8125 -21.4073 1.5
      vertex 46.4073 -20.8125 0
      vertex 45.8125 -21.4073 0
    endloop
  endfacet
  facet normal -0.258819 0.965926 0
    outer loop
      vertex 45.8125 -21.4073 1.5
      vertex 45.8125 -21.4073 0
      vertex 45 -21.625 1.5
    endloop
  endfacet
  facet normal -0.258819 0.965926 0
    outer loop
      vertex 45 -21.625 1.5
      vertex 45.8125 -21.4073 0
      vertex 45 -21.625 0
    endloop
  endfacet
  facet normal 0.258819 0.965926 0
    outer loop
      vertex 45 -21.625 1.5
      vertex 45 -21.625 0
      vertex 44.1875 -21.4073 1.5
    endloop
  endfacet
  facet normal 0.258819 0.965926 0
    outer loop
      vertex 44.1875 -21.4073 1.5
      vertex 45 -21.625 0
      vertex 44.1875 -21.4073 0
    endloop
  endfacet
  facet normal 0.707107 0.707107 0
    outer loop
      vertex 44.1875 -21.4073 1.5
      vertex 44.1875 -21.4073 0
      vertex 43.5927 -20.8125 1.5
    endloop
  endfacet
  facet normal 0.707107 0.707107 0
    outer loop
      vertex 43.5927 -20.8125 1.5
      vertex 44.1875 -21.4073 0
      vertex 43.5927 -20.8125 0
    endloop
  endfacet
  facet normal 0.965926 -0.258819 0
    outer loop
      vertex 43.5927 20.8125 0
      vertex 43.5927 20.8125 1.5
      vertex 43.375 20 1.5
    endloop
  endfacet
  facet normal 0.965926 -0.258819 0
    outer loop
      vertex 43.375 20 0
      vertex 43.5927 20.8125 0
      vertex 43.375 20 1.5
    endloop
  endfacet
  facet normal 0.965926 0.258819 0
    outer loop
      vertex 43.375 20 1.5
      vertex 43.5927 19.1875 1.5
      vertex 43.5927 19.1875 0
    endloop
  endfacet
  facet normal 0.965926 0.258819 0
    outer loop
      vertex 43.375 20 0
      vertex 43.375 20 1.5
      vertex 43.5927 19.1875 0
    endloop
  endfacet
  facet normal 0.707107 -0.707107 0
    outer loop
      vertex 44.1875 21.4073 0
      vertex 44.1875 21.4073 1.5
      vertex 43.5927 20.8125 1.5
    endloop
  endfacet
  facet normal 0.707107 -0.707107 0
    outer loop
      vertex 43.5927 20.8125 0
      vertex 44.1875 21.4073 0
      vertex 43.5927 20.8125 1.5
    endloop
  endfacet
  facet normal 0.258819 -0.965926 0
    outer loop
      vertex 45 21.625 0
      vertex 45 21.625 1.5
      vertex 44.1875 21.4073 1.5
    endloop
  endfacet
  facet normal 0.258819 -0.965926 0
    outer loop
      vertex 44.1875 21.4073 0
      vertex 45 21.625 0
      vertex 44.1875 21.4073 1.5
    endloop
  endfacet
  facet normal -0.258819 -0.965926 0
    outer loop
      vertex 45.8125 21.4073 0
      vertex 45.8125 21.4073 1.5
      vertex 45 21.625 1.5
    endloop
  endfacet
  facet normal -0.258819 -0.965926 0
    outer loop
      vertex 45 21.625 0
      vertex 45.8125 21.4073 0
      vertex 45 21.625 1.5
    endloop
  endfacet
  facet normal -0.707107 -0.707107 0
    outer loop
      vertex 46.4073 20.8125 0
      vertex 46.4073 20.8125 1.5
      vertex 45.8125 21.4073 1.5
    endloop
  endfacet
  facet normal -0.707107 -0.707107 0
    outer loop
      vertex 45.8125 21.4073 0
      vertex 46.4073 20.8125 0
      vertex 45.8125 21.4073 1.5
    endloop
  endfacet
  facet normal -0.965926 -0.258819 0
    outer loop
      vertex 46.625 20 1.5
      vertex 46.4073 20.8125 1.5
      vertex 46.625 20 0
    endloop
  endfacet
  facet normal -0.965926 -0.258819 0
    outer loop
      vertex 46.625 20 0
      vertex 46.4073 20.8125 1.5
      vertex 46.4073 20.8125 0
    endloop
  endfacet
  facet normal -0.965926 0.258819 0
    outer loop
      vertex 46.625 20 1.5
      vertex 46.625 20 0
      vertex 46.4073 19.1875 1.5
    endloop
  endfacet
  facet normal -0.965926 0.258819 0
    outer loop
      vertex 46.4073 19.1875 1.5
      vertex 46.625 20 0
      vertex 46.4073 19.1875 0
    endloop
  endfacet
  facet normal -0.707107 0.707107 0
    outer loop
      vertex 46.4073 19.1875 1.5
      vertex 46.4073 19.1875 0
      vertex 45.8125 18.5927 1.5
    endloop
  endfacet
  facet normal -0.707107 0.707107 0
    outer loop
      vertex 45.8125 18.5927 1.5
      vertex 46.4073 19.1875 0
      vertex 45.8125 18.5927 0
    endloop
  endfacet
  facet normal -0.258819 0.965926 0
    outer loop
      vertex 45.8125 18.5927 1.5
      vertex 45.8125 18.5927 0
      vertex 45 18.375 1.5
    endloop
  endfacet
  facet normal -0.258819 0.965926 0
    outer loop
      vertex 45 18.375 1.5
      vertex 45.8125 18.5927 0
      vertex 45 18.375 0
    endloop
  endfacet
  facet normal 0.258819 0.965926 0
    outer loop
      vertex 45 18.375 1.5
      vertex 45 18.375 0
      vertex 44.1875 18.5927 1.5
    endloop
  endfacet
  facet normal 0.258819 0.965926 0
    outer loop
      vertex 44.1875 18.5927 1.5
      vertex 45 18.375 0
      vertex 44.1875 18.5927 0
    endloop
  endfacet
  facet normal 0.707107 0.707107 0
    outer loop
      vertex 44.1875 18.5927 1.5
      vertex 44.1875 18.5927 0
      vertex 43.5927 19.1875 1.5
    endloop
  endfacet
  facet normal 0.707107 0.707107 0
    outer loop
      vertex 43.5927 19.1875 1.5
      vertex 44.1875 18.5927 0
      vertex 43.5927 19.1875 0
    endloop
  endfacet
  facet normal 0 -1 0
    outer loop
      vertex 49 24 1.5
      vertex 49 24 29.9071
      vertex -49 24 29.9071
    endloop
  endfacet
  facet normal 0 -1 0
    outer loop
      vertex -49 24 1.5
      vertex 49 24 1.5
      vertex -49 24 29.9071
    endloop
  endfacet
  facet normal 1 0 0
    outer loop
      vertex -49 24 1.5
      vertex -49 24 29.9071
      vertex -49 -23.3452 1.5
    endloop
  endfacet
  facet normal 0 0 1
    outer loop
      vertex 44.1875 21.4073 1.5
      vertex 49 24 1.5
      vertex -49 24 1.5
    endloop
  endfacet
  facet normal 0 0 1
    outer loop
      vertex 43.5927 -20.8125 1.5
      vertex -35.5 -12 1.5
      vertex 44.1875 -21.4073 1.5
    endloop
  endfacet
  facet normal 0 0 1
    outer loop
      vertex -49 -23.3452 1.5
      vertex -46.625 -20 1.5
      vertex -49 24 1.5
    endloop
  endfacet
  facet normal 0 0 1
    outer loop
      vertex -46.625 -20 1.5
      vertex -46.4073 -19.1875 1.5
      vertex -49 24 1.5
    endloop
  endfacet
  facet normal 0 0 1
    outer loop
      vertex -46.4073 -19.1875 1.5
      vertex -45.8125 -18.5927 1.5
      vertex -49 24 1.5
    endloop
  endfacet
  facet normal 0 0 1
    outer loop
      vertex -45.8125 -18.5927 1.5
      vertex -45 -18.375 1.5
      vertex -49 24 1.5
    endloop
  endfacet
  facet normal 0 0 1
    outer loop
      vertex -44.1875 -18.5927 1.5
      vertex 49 -23.3452 1.5
      vertex -45 -18.375 1.5
    endloop
  endfacet
  facet normal 0 0 1
    outer loop
      vertex -43.5927 -19.1875 1.5
      vertex -43.375 -20 1.5
      vertex 49 -23.3452 1.5
    endloop
  endfacet
  facet normal 0 0 1
    outer loop
      vertex -43.375 -20 1.5
      vertex -43.5927 -20.8125 1.5
      vertex 49 -23.3452 1.5
    endloop
  endfacet
  facet normal 0 0 1
    outer loop
      vertex -45 -21.625 1.5
      vertex -45.8125 -21.4073 1.5
      vertex -49 -23.3452 1.5
    endloop
  endfacet
  facet normal 0 0 1
    outer loop
      vertex -44.1875 -21.4073 1.5
      vertex 49 -23.3452 1.5
      vertex -43.5927 -20.8125 1.5
    endloop
  endfacet
  facet normal 0 0 1
    outer loop
      vertex -49 -23.3452 1.5
      vertex 49 -23.3452 1.5
      vertex -44.1875 -21.4073 1.5
    endloop
  endfacet
  facet normal 0 0 1
    outer loop
      vertex 35.5 -12 1.5
      vertex -35.5 -12 1.5
      vertex 43.5927 -20.8125 1.5
    endloop
  endfacet
  facet normal 0 0 1
    outer loop
      vertex -49 -23.3452 1.5
      vertex -44.1875 -21.4073 1.5
      vertex -45 -21.625 1.5
    endloop
  endfacet
  facet normal 0 0 1
    outer loop
      vertex -49 -23.3452 1.5
      vertex -46.4073 -20.8125 1.5
      vertex -46.625 -20 1.5
    endloop
  endfacet
  facet normal 0 0 1
    outer loop
      vertex -49 -23.3452 1.5
      vertex -45.8125 -21.4073 1.5
      vertex -46.4073 -20.8125 1.5
    endloop
  endfacet
  facet normal 0 0 1
    outer loop
      vertex -45 -18.375 1.5
      vertex -46.625 20 1.5
      vertex -49 24 1.5
    endloop
  endfacet
  facet normal 0 0 1
    outer loop
      vertex -46.625 20 1.5
      vertex -46.4073 20.8125 1.5
      vertex -49 24 1.5
    endloop
  endfacet
  facet normal 0 0 1
    outer loop
      vertex -46.4073 20.8125 1.5
      vertex -45.8125 21.4073 1.5
      vertex -49 24 1.5
    endloop
  endfacet
  facet normal 0 0 1
    outer loop
      vertex -45.8125 21.4073 1.5
      vertex -45 21.625 1.5
      vertex -49 24 1.5
    endloop
  endfacet
  facet normal 0 0 1
    outer loop
      vertex -45 21.625 1.5
      vertex -44.1875 21.4073 1.5
      vertex -49 24 1.5
    endloop
  endfacet
  facet normal 0 0 1
    outer loop
      vertex 35.5 -12 1.5
      vertex 43.5927 -20.8125 1.5
      vertex 43.375 -20 1.5
    endloop
  endfacet
  facet normal 0 0 1
    outer loop
      vertex -45 -18.375 1.5
      vertex -44.1875 18.5927 1.5
      vertex -45 18.375 1.5
    endloop
  endfacet
  facet normal 0 0 1
    outer loop
      vertex -45 -18.375 1.5
      vertex -45 18.375 1.5
      vertex -45.8125 18.5927 1.5
    endloop
  endfacet
  facet normal 0 0 1
    outer loop
      vertex -45 -18.375 1.5
      vertex -46.4073 19.1875 1.5
      vertex -46.625 20 1.5
    endloop
  endfacet
  facet normal 0 0 1
    outer loop
      vertex -45 -18.375 1.5
      vertex -45.8125 18.5927 1.5
      vertex -46.4073 19.1875 1.5
    endloop
  endfacet
  facet normal 0 0 1
    outer loop
      vertex -45 -18.375 1.5
      vertex -35.5 12 1.5
      vertex -44.1875 18.5927 1.5
    endloop
  endfacet
  facet normal 0 0 1
    outer loop
      vertex 45 -21.625 1.5
      vertex 44.1875 -21.4073 1.5
      vertex 49 -23.3452 1.5
    endloop
  endfacet
  facet normal 0 0 1
    outer loop
      vertex 44.1875 -18.5927 1.5
      vertex 35.5 12 1.5
      vertex 35.5 -12 1.5
    endloop
  endfacet
  facet normal 0 0 1
    outer loop
      vertex -45 -18.375 1.5
      vertex -35.5 -12 1.5
      vertex -35.5 12 1.5
    endloop
  endfacet
  facet normal 0 0 1
    outer loop
      vertex -45 -18.375 1.5
      vertex 49 -23.3452 1.5
      vertex -35.5 -12 1.5
    endloop
  endfacet
  facet normal 0 0 1
    outer loop
      vertex 43.5927 -19.1875 1.5
      vertex 35.5 -12 1.5
      vertex 43.375 -20 1.5
    endloop
  endfacet
  facet normal 0 0 1
    outer loop
      vertex 46.625 -20 1.5
      vertex 46.4073 -20.8125 1.5
      vertex 49 -23.3452 1.5
    endloop
  endfacet
  facet normal 0 0 1
    outer loop
      vertex 45 -18.375 1.5
      vertex 35.5 12 1.5
      vertex 44.1875 -18.5927 1.5
    endloop
  endfacet
  facet normal 0 0 1
    outer loop
      vertex 46.4073 -20.8125 1.5
      vertex 45.8125 -21.4073 1.5
      vertex 49 -23.3452 1.5
    endloop
  endfacet
  facet normal 0 0 1
    outer loop
      vertex 45.8125 -18.5927 1.5
      vertex 35.5 12 1.5
      vertex 45 -18.375 1.5
    endloop
  endfacet
  facet normal 0 0 1
    outer loop
      vertex 46.4073 -19.1875 1.5
      vertex 35.5 12 1.5
      vertex 45.8125 -18.5927 1.5
    endloop
  endfacet
  facet normal 0 0 1
    outer loop
      vertex 49 -23.3452 1.5
      vertex 35.5 12 1.5
      vertex 46.4073 -19.1875 1.5
    endloop
  endfacet
  facet normal 0 0 1
    outer loop
      vertex 45.8125 -21.4073 1.5
      vertex 45 -21.625 1.5
      vertex 49 -23.3452 1.5
    endloop
  endfacet
  facet normal 0 0 1
    outer loop
      vertex 46.4073 -19.1875 1.5
      vertex 46.625 -20 1.5
      vertex 49 -23.3452 1.5
    endloop
  endfacet
  facet normal 0 0 1
    outer loop
      vertex 43.5927 19.1875 1.5
      vertex 43.375 20 1.5
      vertex 35.5 12 1.5
    endloop
  endfacet
  facet normal 0 0 1
    outer loop
      vertex 43.5927 -19.1875 1.5
      vertex 44.1875 -18.5927 1.5
      vertex 35.5 -12 1.5
    endloop
  endfacet
  facet normal 0 0 1
    outer loop
      vertex -35.5 -12 1.5
      vertex 49 -23.3452 1.5
      vertex 44.1875 -21.4073 1.5
    endloop
  endfacet
  facet normal 0 0 1
    outer loop
      vertex 46.625 20 1.5
      vertex 46.4073 19.1875 1.5
      vertex 49 -23.3452 1.5
    endloop
  endfacet
  facet normal 0 0 1
    outer loop
      vertex 35.5 12 1.5
      vertex 43.375 20 1.5
      vertex -49 24 1.5
    endloop
  endfacet
  facet normal 0 0 1
    outer loop
      vertex 43.375 20 1.5
      vertex 43.5927 20.8125 1.5
      vertex -49 24 1.5
    endloop
  endfacet
  facet normal 0 0 1
    outer loop
      vertex 43.5927 20.8125 1.5
      vertex 44.1875 21.4073 1.5
      vertex -49 24 1.5
    endloop
  endfacet
  facet normal 0 0 1
    outer loop
      vertex 45 21.625 1.5
      vertex 45.8125 21.4073 1.5
      vertex 49 24 1.5
    endloop
  endfacet
  facet normal 0 0 1
    outer loop
      vertex 45.8125 21.4073 1.5
      vertex 46.4073 20.8125 1.5
      vertex 49 24 1.5
    endloop
  endfacet
  facet normal 0 0 1
    outer loop
      vertex 44.1875 21.4073 1.5
      vertex 45 21.625 1.5
      vertex 49 24 1.5
    endloop
  endfacet
  facet normal 0 0 1
    outer loop
      vertex 46.625 20 1.5
      vertex 49 24 1.5
      vertex 46.4073 20.8125 1.5
    endloop
  endfacet
  facet normal 0 0 1
    outer loop
      vertex 45.8125 18.5927 1.5
      vertex 45 18.375 1.5
      vertex 35.5 12 1.5
    endloop
  endfacet
  facet normal 0 0 1
    outer loop
      vertex 49 -23.3452 1.5
      vertex 49 24 1.5
      vertex 46.625 20 1.5
    endloop
  endfacet
  facet normal 0 0 1
    outer loop
      vertex 44.1875 18.5927 1.5
      vertex 43.5927 19.1875 1.5
      vertex 35.5 12 1.5
    endloop
  endfacet
  facet normal 0 0 1
    outer loop
      vertex 49 -23.3452 1.5
      vertex 45.8125 18.5927 1.5
      vertex 35.5 12 1.5
    endloop
  endfacet
  facet normal 0 0 1
    outer loop
      vertex 49 -23.3452 1.5
      vertex 46.4073 19.1875 1.5
      vertex 45.8125 18.5927 1.5
    endloop
  endfacet
  facet normal 0 0 1
    outer loop
      vertex 45 18.375 1.5
      vertex 44.1875 18.5927 1.5
      vertex 35.5 12 1.5
    endloop
  endfacet
  facet normal 0 0 1
    outer loop
      vertex -44.1875 -18.5927 1.5
      vertex -43.5927 -19.1875 1.5
      vertex 49 -23.3452 1.5
    endloop
  endfacet
  facet normal 0 0 1
    outer loop
      vertex -35.5 12 1.5
      vertex -43.5927 19.1875 1.5
      vertex -44.1875 18.5927 1.5
    endloop
  endfacet
  facet normal 0 0 1
    outer loop
      vertex -35.5 12 1.5
      vertex -43.375 20 1.5
      vertex -43.5927 19.1875 1.5
    endloop
  endfacet
  facet normal 0 0 1
    outer loop
      vertex -35.5 12 1.5
      vertex -43.5927 20.8125 1.5
      vertex -43.375 20 1.5
    endloop
  endfacet
  facet normal 0 0 1
    outer loop
      vertex -44.1875 21.4073 1.5
      vertex 35.5 12 1.5
      vertex -49 24 1.5
    endloop
  endfacet
  facet normal 0 0 1
    outer loop
      vertex -43.5927 20.8125 1.5
      vertex 35.5 12 1.5
      vertex -44.1875 21.4073 1.5
    endloop
  endfacet
  facet normal 0 0 1
    outer loop
      vertex -35.5 12 1.5
      vertex 35.5 12 1.5
      vertex -43.5927 20.8125 1.5
    endloop
  endfacet
  facet normal -1 0 0
    outer loop
      vertex 49 24 29.9071
      vertex 49 24 1.5
      vertex 49 -23.3452 1.5
    endloop
  endfacet
endsolid OpenSCAD_Model
